<svg class="svg-icon" style="width: 1.0283203125em;height: 1em;vertical-align: middle;fill: currentColor;overflow: hidden;" viewBox="0 0 1053 1024" version="1.1" xmlns="http://www.w3.org/2000/svg"><path d="M927.861215 1024H122.437417A122.584116 122.584116 0 0 1 0 901.562583V122.431797A122.572832 122.572832 0 0 1 122.437417 0.005665h519.08951a27.398898 27.398898 0 1 1 0 54.786512h-519.08951a67.707327 67.707327 0 0 0-67.650905 67.63962v779.130786a67.707327 67.707327 0 0 0 67.707328 67.63962h805.367375a67.707327 67.707327 0 0 0 67.650904-67.63962v-484.107391a27.398898 27.398898 0 0 1 54.786513 0v484.107391a122.584116 122.584116 0 0 1-122.437417 122.437417z"  /><path d="M311.758389 789.461818A27.398898 27.398898 0 0 1 285.623361 753.81391l72.32271-229.076458a27.398898 27.398898 0 0 1 45.499324-11.115286L555.200085 665.489701a27.387614 27.387614 0 0 1-10.438213 45.262349L320.673187 788.00611a27.387614 27.387614 0 0 1-8.914798 1.455708z m84.848566-205.141918l-42.373503 134.16207 131.23937-45.251064z"  /><path d="M535.835789 712.252896a27.308622 27.308622 0 0 1-19.37558-8.023319L364.694235 552.486172a27.387614 27.387614 0 0 1 0-38.739876l383.528156-383.539441a27.387614 27.387614 0 0 1 38.739875 0l151.811113 151.75469a27.410183 27.410183 0 0 1 0 38.751161L555.200085 704.229577a27.297337 27.297337 0 0 1-19.364296 8.023319zM422.809691 533.088023l113.026098 113.059952 344.776996-344.81085-113.026099-113.026098z"  /><path d="M919.352661 328.736024a27.432752 27.432752 0 0 1-19.375581-8.023318L748.222391 168.946731a27.387614 27.387614 0 0 1 0-38.739876l90.513412-90.524696a84.182777 84.182777 0 0 1 118.92792 0l71.57793 71.577929a84.081216 84.081216 0 0 1 0 118.927921l-90.468274 90.524697a27.387614 27.387614 0 0 1-19.420718 8.023318zM806.326562 149.627574L919.352661 262.59725l71.149116-71.160401a29.339842 29.339842 0 0 0 0-41.436885l-71.577929-71.577929a29.339842 29.339842 0 0 0-41.436885 0z"  /></svg>